<svg viewBox="0 0 400 300" fill="none" xmlns="http://www.w3.org/2000/svg"><path d="M271.066 229.384s73.87-44.264 66.863-106.339c-5.349-47.526-28.269-56.807-27.788-70.313.481-13.506-14.817-10.698-13.533 9.28.642 3.103 3.557 11.448 3.557 11.448" stroke="#231815" stroke-width="2.14" stroke-miterlimit="10"/><path d="m262.135 187.073 6.285-9.441 36.828 30.677s-9.655 12.891-34.1 23.455l-9.013-44.691Z" fill="#005DFF"/><path d="m270.96 180.467 38.647 29.687 2.808 1.899-7.275 8.558-26.905-21.316M282.513 157.225l-14.415 11.688" stroke="#231815" stroke-width="2.166" stroke-miterlimit="10"/><path d="M183.128 151.742H88.21v82.91h94.918v-82.91Z" fill="#D6DAE1"/><path d="M274.893 151.742h-91.789v82.91h91.789v-82.91ZM183.102 68.86H88.184v82.909h94.918v-82.91Z" fill="#D6DAE1"/><path d="M238.971 137.701h-30.703v13.747h30.703v-13.747Z" fill="#fff"/><path d="M85.616 151.582h37.952v-11.126h26.959v10.297h57.502" stroke="#fff" stroke-width="2.14" stroke-miterlimit="10"/><path d="M184.227 142.783v37.951h11.126v26.986h-10.297v57.502" stroke="#fff" stroke-width="2.14" stroke-miterlimit="10"/><path d="m64.059 253.802 68.975 1.07c19.364.294 23.162-9.495 18.187-17.278" stroke="#231815" stroke-width="2.14" stroke-miterlimit="10"/><path d="M120.305 237.514s35.597 1.203 41.348 0c8.933-1.632 7.141-14.737-1.257-14.737" stroke="#231815" stroke-width="2.14" stroke-miterlimit="10"/><path d="M125.011 222.43s31.505.775 37.603.534c10.404-.401 11.661-18.106-5.616-17.143" stroke="#231815" stroke-width="2.14" stroke-miterlimit="10"/><path d="M87.756 180.333c-2.22 9.173 23.803 9.655 33.859 9.735 10.056.08 25.595-2.675 36.347-.268 10.751 2.407 9.708 16.315-1.792 16.422-4.921 0-33.271-.375-33.271-.375M88.504 163.243a24.067 24.067 0 0 0-14.95 23.161H62" stroke="#231815" stroke-width="2.14" stroke-miterlimit="10"/><path d="M103.134 85.414h63.412M103.134 97.316h63.412M208.618 191.512h55.603M208.618 177.257h55.603M103.134 109.244h29.098" stroke="#fff" stroke-width="2.14" stroke-miterlimit="10"/><path d="M332.233 88.73 273.287 35 251.49 59.097l-9.308-8.451-21.128 23.215 9.735 8.879-20.246 22.867 61.22 52.073 60.47-68.95Z" fill="#FF3640"/><path d="M293.935 84.478s-8.265-3.182-8.987 4.039l.187 7.355s-11.286-8.024-16.769-.589c0 0-3.182 6.553 4.734 13.694 0 0-7.435-3.557-10.511 7.729 0 0-1.551 5.002 5.59 10.03 0 0-13.373 1.337-7.328 12.623l16.796 14.389 31.425-11.206 12.838-35.598s-4.547-5.349-6.767-7.702c-2.219-2.354-10.029-12.17-21.208-14.764Z" fill="#fff"/><path d="M321.213 105.5s-16.047-18.722-29.259-21.85c-8.184-1.873-9.735 10.376-4.466 14.335 7.408 5.589 23.054 18.4 23.054 18.4" stroke="#231815" stroke-width="2.14" stroke-miterlimit="10"/><path d="M301.316 129.49s-27.066-19.845-29.634-22.573c-2.567-2.728-7.007-8.772-2.059-12.998 4.948-4.226 14.629.749 20.219 6.098M294.336 144.094s-24.071-16.261-27.441-18.722c-4.092-3.183-6.713-7.168-2.38-13.747s11.581-.802 11.581-.802M287.49 160.568l-1.819-1.551s-17.973-12.945-22.573-16.582c-4.6-3.638-5.964-16.047 6.365-15.191" stroke="#231815" stroke-width="2.14" stroke-miterlimit="10"/><path d="M159.433 120.718a8.398 8.398 0 1 0 0-16.796 8.398 8.398 0 0 0 0 16.796Z" fill="#005DFF"/><path d="M257.052 220.637a8.397 8.397 0 1 0 0-16.795 8.397 8.397 0 1 0 0 16.795Z" fill="#fff"/></svg>