<svg width="289" height="194" viewBox="0 0 289 194" fill="none" xmlns="http://www.w3.org/2000/svg">
<path d="M243.655 40.381H43.918V152.045H243.655V40.381Z" stroke="#F6BCD1" stroke-width="1.573" stroke-linecap="round" stroke-linejoin="round"/>
<path d="M235.791 46.672H51.781V145.754H235.791V46.672ZM143.785 152.046H243.457L276.681 188.219H10.89L44.114 152.046H143.785V152.046Z" stroke="#F6BCD1" stroke-width="1.573" stroke-linecap="round" stroke-linejoin="round"/>
<path d="M276.681 188.218H10.89V192.936H276.68V188.218H276.681ZM140.236 155.191H234.625L249.946 174.064H37.627L52.947 155.191H140.236Z" stroke="#F6BCD1" stroke-width="1.573" stroke-linecap="round" stroke-linejoin="round"/>
<path d="M192.298 18.891L237.572 0.842999C237.843 0.734967 238.146 0.73906 238.415 0.854374C238.683 0.969689 238.895 1.1868 239.003 1.458L260.548 55.505L213.229 74.369L191.683 20.321C191.575 20.0498 191.579 19.7468 191.694 19.4787C191.81 19.2105 192.027 18.9991 192.298 18.891V18.891Z" fill="white" stroke="#5783FC" stroke-width="0.944"/>
<path d="M207.873 27.906C208.263 27.5311 208.574 27.0823 208.788 26.5858C209.002 26.0892 209.115 25.5549 209.121 25.0141C209.126 24.4734 209.023 23.937 208.819 23.4363C208.614 22.9357 208.312 22.4809 207.929 22.0985C207.547 21.7162 207.092 21.4139 206.591 21.2095C206.091 21.005 205.554 20.9024 205.014 20.9078C204.473 20.9131 203.939 21.0263 203.442 21.2406C202.946 21.455 202.497 21.7661 202.122 22.156C201.384 22.9236 200.976 23.9501 200.987 25.0148C200.998 26.0796 201.425 27.0978 202.178 27.8506C202.931 28.6035 203.95 29.0311 205.014 29.0414C206.079 29.0518 207.105 28.6441 207.873 27.906V27.906Z" fill="#22D5EC"/>
<path d="M214.418 21.263L235.241 12.934" stroke="#5783FC" stroke-width="0.629" stroke-miterlimit="10" stroke-linecap="round" stroke-linejoin="round"/>
<path d="M212.831 40.399C213.218 40.0234 213.526 39.5747 213.737 39.0789C213.949 38.5832 214.06 38.0503 214.064 37.5113C214.068 36.9722 213.965 36.4378 213.76 35.939C213.556 35.4402 213.254 34.9871 212.873 34.6059C212.492 34.2248 212.039 33.9232 211.54 33.7187C211.041 33.5142 210.507 33.4109 209.968 33.4148C209.429 33.4188 208.896 33.5298 208.4 33.7415C207.904 33.9532 207.456 34.2613 207.08 34.648C206.342 35.4156 205.934 36.4421 205.945 37.5068C205.956 38.5716 206.383 39.5898 207.136 40.3426C207.889 41.0955 208.908 41.523 209.972 41.5334C211.037 41.5437 212.063 41.1361 212.831 40.398V40.399Z" fill="#FF3175"/>
<path d="M219.426 33.804L240.248 25.475M220.851 48.244L245.204 37.97M219.276 63.186L250.259 50.465" stroke="#5783FC" stroke-width="0.629" stroke-miterlimit="10" stroke-linecap="round" stroke-linejoin="round"/>
<path d="M201.811 34.058L121.596 18.142C121.191 18.0616 120.774 18.0618 120.369 18.1426C119.964 18.2234 119.579 18.3831 119.235 18.6128C118.892 18.8424 118.597 19.1374 118.368 19.481C118.139 19.8245 117.979 20.2099 117.899 20.615L98.376 119.004C98.2136 119.822 98.3829 120.672 98.8467 121.365C99.3104 122.059 100.031 122.539 100.849 122.702L184.15 139.23L204.284 37.756C204.364 37.3508 204.364 36.9337 204.284 36.5285C204.203 36.1234 204.043 35.7381 203.814 35.3946C203.584 35.0512 203.289 34.7564 202.945 34.5271C202.602 34.2977 202.216 34.1383 201.811 34.058V34.058Z" fill="#011650" stroke="#011650" stroke-width="0.779" stroke-miterlimit="10" stroke-linecap="round" stroke-linejoin="round"/>
<path d="M157.664 145.607L104.307 130.805C103.908 130.694 103.534 130.506 103.208 130.25C102.882 129.994 102.609 129.677 102.406 129.315C102.203 128.954 102.073 128.556 102.024 128.145C101.975 127.733 102.008 127.316 102.121 126.917L129.446 30.404C129.673 29.6016 130.21 28.9224 130.938 28.5155C131.666 28.1086 132.526 28.0073 133.328 28.234L212.044 50.473C212.443 50.5859 212.816 50.7765 213.141 51.0339C213.466 51.2914 213.737 51.6105 213.938 51.9731C214.14 52.3356 214.267 52.7344 214.314 53.1464C214.36 53.5584 214.325 53.9756 214.21 54.374L187.823 145.607H157.664Z" fill="#5783FC"/>
<path d="M150.261 75.658C159.685 74.418 166.32 65.773 165.08 56.349C163.84 46.925 155.195 40.29 145.771 41.53C136.347 42.77 129.712 51.415 130.952 60.839C132.192 70.263 140.837 76.898 150.261 75.658Z" stroke="white" stroke-width="0.779" stroke-miterlimit="10" stroke-linecap="round" stroke-linejoin="round"/>
<path d="M152.725 42.1L143.389 75.154M131.531 53.959L164.585 63.295M135.866 46.508L164.787 54.745M131.327 62.51L160.248 70.747M157.101 61.232C159.692 52.087 157.719 43.519 152.693 42.095C147.668 40.671 141.493 46.93 138.901 56.074C136.31 65.219 138.283 73.787 143.309 75.212C148.334 76.636 154.509 70.377 157.101 61.232V61.232Z" stroke="white" stroke-width="0.779" stroke-miterlimit="10" stroke-linecap="round" stroke-linejoin="round"/>
<path d="M175.715 59.515L199.915 66.34M194.5 79.346L195.877 79.712M171.669 72.81L189.212 77.774M123.738 81.494L191.397 100.665M120.579 92.543L188.238 111.714M157.294 114.847L175.319 119.904M117.486 103.508L151.764 113.23" stroke="white" stroke-width="1.043" stroke-miterlimit="10" stroke-linecap="round" stroke-linejoin="round"/>
<path opacity="0.4" d="M182.137 133.378L114.486 114.207L112.309 121.89L179.96 141.061L182.137 133.378V133.378Z" fill="white"/>
<path fill-rule="evenodd" clip-rule="evenodd" d="M55.768 25.434C61.923 23.518 65.347 16.934 63.415 10.728C61.483 4.52099 54.928 1.04299 48.773 2.95799C42.618 4.87499 39.193 11.458 41.126 17.665C43.057 23.871 49.613 27.35 55.768 25.434Z" fill="#FFD44C"/>
<path fill-rule="evenodd" clip-rule="evenodd" d="M48.555 13.234C49.144 13.05 49.463 12.391 49.267 11.76C49.071 11.13 48.434 10.768 47.845 10.951C47.255 11.134 46.9371 11.794 47.1331 12.424C47.3291 13.054 47.966 13.417 48.555 13.234ZM48.139 15.658L56.4971 13.056L56.6771 13.632C56.8479 14.1809 56.909 14.758 56.8568 15.3304C56.8046 15.9029 56.6401 16.4595 56.3728 16.9684C56.1056 17.4773 55.7406 17.9286 55.2989 18.2965C54.8572 18.6644 54.3474 18.9416 53.7985 19.1125C53.2497 19.2833 52.6726 19.3444 52.1001 19.2922C51.5276 19.24 50.971 19.0756 50.4621 18.8083C49.9532 18.541 49.502 18.1761 49.1341 17.7344C48.7662 17.2927 48.4889 16.7829 48.318 16.234L48.139 15.658V15.658ZM55.3141 9.87799C55.5111 10.508 55.192 11.168 54.603 11.352C54.013 11.535 53.376 11.172 53.18 10.542C52.984 9.91199 53.303 9.25199 53.892 9.06899C54.481 8.88499 55.1181 9.24799 55.3141 9.87899V9.87799Z" fill="white"/>
<path d="M133.499 183.963H154.743" stroke="#011650" stroke-width="1.573" stroke-linecap="round" stroke-linejoin="round"/>
<path d="M279.827 154.924L284.272 150.472L288.724 154.917L284.279 159.369L279.827 154.924Z" fill="#DFE8FE"/>
<path d="M273.42 104.785C271.965 110.139 266.384 113.316 260.954 111.882L266.223 92.493C271.653 93.928 274.875 99.431 273.42 104.785Z" fill="#22D5EC"/>
<path d="M0.594016 52.745C0.568016 51.528 1.85401 50.73 2.90802 51.309L7.70101 53.942C8.75501 54.522 8.78702 56.044 7.75902 56.682L3.08401 59.583C2.05501 60.221 0.737013 59.497 0.711013 58.279L0.594016 52.745V52.745Z" fill="#5783FC"/>
<path d="M96.5423 91.133C111.357 91.3145 123.516 79.2328 123.701 64.1477C123.886 49.0626 112.026 36.6866 97.2117 36.5051C82.3972 36.3235 70.2379 48.4053 70.053 63.4903C69.8682 78.5754 81.7279 90.9514 96.5423 91.133Z" fill="#011650"/>
<path d="M94.992 86.88C109.686 84.9824 120.059 71.5325 118.161 56.839C116.263 42.1454 102.813 31.7723 88.1199 33.67C73.4264 35.5676 63.0533 49.0175 64.9509 63.711C66.8486 78.4046 80.2984 88.7777 94.992 86.88Z" fill="#5DD1AE"/>
<path d="M101.982 46.758L78.037 49.851L81.129 73.795L105.074 70.703L101.982 46.758V46.758Z" fill="white" fill-opacity="0.01"/>
<path d="M100.195 52.568L88.838 67.22L82.153 62.09" stroke="white" stroke-width="2.742" stroke-linecap="round" stroke-linejoin="round"/>
<path fill-rule="evenodd" clip-rule="evenodd" d="M69.503 96.867L63.819 129.623C63.604 130.864 62.091 131.361 61.182 130.49L51.572 121.29L26.568 147.407C25.968 148.034 24.972 148.056 24.344 147.455L19.044 142.38C18.8948 142.237 18.7751 142.067 18.6919 141.878C18.6087 141.689 18.5635 141.485 18.559 141.279C18.5544 141.072 18.5906 140.867 18.6654 140.674C18.7402 140.482 18.8522 140.306 18.995 140.157L44 114.04L34.389 104.839C33.479 103.968 33.911 102.435 35.14 102.166L67.618 95.062C67.8699 95.0069 68.1315 95.0146 68.3798 95.0844C68.6281 95.1542 68.8553 95.284 69.0417 95.4623C69.228 95.6406 69.3676 95.862 69.4482 96.1069C69.5288 96.3519 69.548 96.6129 69.504 96.867H69.503Z" fill="#FF3175"/>
</svg>
