<svg width="158" height="45" viewBox="0 0 158 45" fill="none" xmlns="http://www.w3.org/2000/svg">
<path d="M31.7631 13.98C31.3027 12.5708 30.6958 11.3082 29.9424 10.192C29.2029 9.06187 28.317 8.09917 27.2845 7.30391C26.266 6.50864 25.108 5.90172 23.8105 5.48316C22.5129 5.0646 21.0898 4.85532 19.5411 4.85532C17.0019 4.85532 14.6928 5.51107 12.6139 6.82256C10.5351 8.13406 8.88175 10.0664 7.65397 12.6196C6.42619 15.1729 5.81229 18.3051 5.81229 22.0164C5.81229 25.7276 6.43316 28.8599 7.6749 31.4131C8.91663 33.9663 10.5979 35.8987 12.7186 37.2102C14.8393 38.5217 17.2251 39.1774 19.876 39.1774C22.3315 39.1774 24.4941 38.6542 26.3637 37.6078C28.2472 36.5474 29.7122 35.0546 30.7586 33.1292C31.8189 31.1898 32.3491 28.9087 32.3491 26.2857L33.9397 26.6205H21.048V22.0164H37.3719V26.6205C37.3719 30.1504 36.6185 33.2199 35.1116 35.8289C33.6188 38.4379 31.5539 40.461 28.9169 41.8981C26.2939 43.3212 23.2803 44.0327 19.876 44.0327C16.081 44.0327 12.7465 43.1398 9.87235 41.3539C7.01217 39.5681 4.77984 37.0288 3.17535 33.7361C1.58482 30.4434 0.789551 26.5368 0.789551 22.0164C0.789551 18.626 1.24299 15.5775 2.14988 12.8708C3.07071 10.1501 4.36826 7.83409 6.0425 5.92265C7.71675 4.01122 9.69794 2.54625 11.9861 1.52775C14.2742 0.509251 16.7926 0 19.5411 0C21.8014 0 23.9081 0.341825 25.8614 1.02548C27.8287 1.69517 29.5796 2.65089 31.1144 3.89263C32.663 5.12041 33.9536 6.59235 34.9861 8.30846C36.0185 10.0106 36.7301 11.9011 37.1207 13.98H31.7631Z" fill="black"/>
<path d="M50.5304 0.585987V43.4467H45.5914V0.585987H50.5304Z" fill="black"/>
<path d="M125.769 11.3012L113.882 43.4467H108.859L96.972 11.3012H102.33L111.203 36.9172H111.538L120.411 11.3012H125.769Z" fill="black"/>
<path d="M144.615 44.1164C141.517 44.1164 138.846 43.4328 136.599 42.0655C134.367 40.6842 132.644 38.7588 131.43 36.2893C130.23 33.8059 129.63 30.9178 129.63 27.6251C129.63 24.3324 130.23 21.4304 131.43 18.919C132.644 16.3937 134.332 14.4264 136.495 13.0173C138.671 11.5942 141.21 10.8826 144.113 10.8826C145.787 10.8826 147.44 11.1617 149.072 11.7197C150.705 12.2778 152.191 13.1847 153.53 14.4404C154.87 15.6821 155.937 17.3285 156.732 19.3794C157.527 21.4304 157.925 23.9557 157.925 26.9554V29.0482H133.146V24.7789H152.902C152.902 22.9651 152.54 21.3467 151.814 19.9236C151.102 18.5004 150.084 17.3773 148.759 16.5541C147.447 15.731 145.898 15.3194 144.113 15.3194C142.145 15.3194 140.443 15.8077 139.006 16.7843C137.583 17.747 136.488 19.0027 135.72 20.5514C134.953 22.1001 134.569 23.7604 134.569 25.5323V28.3785C134.569 30.8062 134.988 32.8641 135.825 34.5523C136.676 36.2265 137.855 37.5032 139.362 38.3821C140.869 39.2472 142.62 39.6797 144.615 39.6797C145.912 39.6797 147.084 39.4983 148.131 39.1355C149.191 38.7588 150.105 38.2008 150.872 37.4613C151.64 36.7079 152.233 35.7731 152.651 34.6569L157.423 35.9963C156.92 37.6148 156.076 39.0379 154.89 40.2657C153.705 41.4795 152.24 42.4282 150.496 43.1119C148.752 43.7816 146.791 44.1164 144.615 44.1164Z" fill="black"/>
<path fill-rule="evenodd" clip-rule="evenodd" d="M75.8519 21.4716L72.5972 18.2128C70.5877 16.2008 66.4687 16.1863 64.3297 18.3279C62.2526 20.4076 62.2526 24.0091 64.3297 26.0888L75.784 37.5574L87.2384 26.0888C89.5158 23.8086 89.4252 20.2073 87.3932 18.1729C85.3417 16.1188 81.203 16.1138 79.1066 18.2128L75.8519 21.4716ZM61.075 15.0772C57.2042 18.9528 57.2042 25.4639 61.075 29.3395L74.7002 42.9816C75.3196 43.6017 76.2485 43.6017 76.8679 42.9816L90.4931 29.3395C94.5188 25.3088 94.5188 18.7978 90.6479 14.9222C86.7824 11.0519 79.742 11.0865 75.8678 14.9463C75.8625 14.9516 75.8572 14.9569 75.8519 14.9622C75.8467 14.957 75.8415 14.9518 75.8363 14.9466C71.9622 11.0869 64.9406 11.2068 61.075 15.0772Z" fill="black"/>
</svg>
